<?xml version="1.0" standalone="no"?>
<!DOCTYPE svg PUBLIC "-//W3C//DTD SVG 20010904//EN"
 "http://www.w3.org/TR/2001/REC-SVG-20010904/DTD/svg10.dtd">
<svg version="1.0" xmlns="http://www.w3.org/2000/svg"
 width="500.000000pt" height="250.000000pt" viewBox="0 0 500.000000 250.000000"
 preserveAspectRatio="xMidYMid meet">

<g transform="translate(0.000000,250.000000) scale(0.100000,-0.100000)"
fill="#000000" stroke="none">
<path d="M0 1250 l0 -1250 2500 0 2500 0 0 1250 0 1250 -2500 0 -2500 0 0
-1250z m1600 820 c0 -21 -15 -27 -25 -10 -9 14 -33 1 -42 -23 -10 -32 -6 -52
37 -162 21 -55 46 -121 56 -147 9 -27 20 -48 24 -48 8 0 105 247 116 295 4 17
16 43 27 59 l21 29 -21 -5 c-11 -3 -27 -2 -34 3 -10 6 -2 9 21 9 19 0 50 4 68
10 29 8 33 7 28 -6 -3 -9 -6 -17 -6 -20 0 -2 -7 -1 -15 3 -22 8 -52 -22 -66
-66 -6 -20 -43 -117 -81 -216 -39 -99 -74 -191 -78 -205 -7 -22 -8 -20 -9 13
-1 22 -7 53 -15 70 -24 53 -40 111 -37 131 2 13 -1 16 -11 10 -7 -4 -10 -4 -6
0 3 4 -7 47 -24 94 -28 83 -31 113 -13 156 7 15 5 18 -7 13 -9 -3 -29 -2 -45
3 -25 7 -22 8 22 10 28 1 61 6 75 10 38 12 40 12 40 -10z m1400 3 c0 -15 -9
-18 -47 -18 -82 -1 -129 -39 -137 -110 -2 -14 -5 -28 -9 -31 -3 -3 -6 -105 -7
-226 0 -176 2 -218 12 -212 22 13 111 85 157 128 24 23 39 32 33 21 -6 -11
-22 -31 -37 -45 -51 -47 -111 -148 -81 -137 15 6 17 -23 3 -34 -13 -9 49 -20
193 -33 l125 -12 -180 -7 c-99 -4 -193 -11 -210 -16 l-30 -9 35 -2 c19 -1 27
-4 18 -7 -10 -2 -18 -6 -18 -9 0 -5 26 -36 108 -128 96 -109 94 -121 -4 -26
-49 47 -99 94 -110 103 -21 17 -21 17 -17 -5 2 -13 5 -170 6 -349 l2 -325 25
-36 c28 -42 76 -68 125 -68 24 0 35 -5 35 -15 0 -19 7 -19 -124 10 -116 26
-194 27 -281 6 -22 -6 -56 -10 -75 -10 l-35 1 38 9 c91 21 131 61 146 144 14
77 18 652 5 665 -6 6 -42 -21 -99 -73 l-90 -82 76 85 c42 47 79 95 83 106 7
21 4 22 -116 25 -68 2 -171 4 -230 4 -171 0 -100 12 114 19 109 3 204 9 213
12 26 11 16 38 -31 84 -25 25 -69 72 -97 105 l-51 60 60 -56 c56 -53 134 -116
162 -133 12 -7 13 34 10 235 -3 234 -4 246 -26 285 -25 43 -62 70 -122 88 -30
9 5 11 184 14 180 2 261 8 294 21 1 1 2 -7 2 -16z m-1710 -8 c0 -8 -7 -15 -16
-15 -8 0 -12 5 -9 10 11 18 -15 10 -36 -11 -24 -24 -26 -15 53 -222 33 -86 57
-164 54 -172 -3 -8 -3 -15 -1 -15 6 0 38 74 87 198 22 56 45 102 50 102 6 0 8
-6 4 -12 -5 -13 -127 -314 -142 -353 -7 -17 -8 -16 -11 10 -2 17 -34 117 -70
224 -57 169 -65 199 -55 223 9 25 8 29 -6 27 -9 -1 -30 0 -47 2 -19 1 -7 5 30
9 105 12 115 11 115 -5z m1180 0 c0 -1 -9 -5 -20 -8 -12 -3 -20 0 -20 8 0 8 8
11 20 8 11 -3 20 -7 20 -8z m64 -35 c7 -7 1 -7 -19 -1 -54 17 -61 21 -25 16
19 -3 39 -10 44 -15z m56 -36 c0 -2 -9 0 -20 6 -11 6 -20 13 -20 16 0 2 9 0
20 -6 11 -6 20 -13 20 -16z m-547 -91 c-7 -2 -19 -2 -25 0 -7 3 -2 5 12 5 14
0 19 -2 13 -5z m-72 -32 c-17 -16 -31 -33 -32 -38 -11 -130 -10 -138 11 -184
13 -26 33 -52 47 -58 42 -19 107 -13 147 14 20 13 36 21 36 16 0 -17 -98 -61
-136 -60 -58 1 -77 10 -113 51 -26 30 -33 47 -36 94 -5 67 22 143 63 174 38
31 48 24 13 -9z m161 2 c26 -28 52 -72 46 -77 -2 -2 -15 -6 -31 -10 -25 -6
-27 -4 -22 17 4 15 -2 35 -19 60 -30 44 -13 51 26 10z m506 -193 c0 -91 -2
-158 -4 -150 -6 32 -10 363 -3 340 4 -14 7 -99 7 -190z m-1468 -358 c0 -5 -7
-17 -15 -28 -13 -17 -14 -17 -9 -1 6 15 3 17 -22 11 -38 -8 -74 -31 -75 -47 0
-6 -3 -23 -6 -37 -10 -48 -12 -456 -2 -520 17 -115 77 -203 147 -216 21 -4 44
-11 52 -15 29 -18 -65 3 -113 25 -40 17 -52 30 -74 74 -14 28 -28 52 -32 52
-4 0 -6 18 -4 41 1 22 -2 52 -8 65 -13 35 -13 464 0 495 6 13 17 33 26 44 14
20 13 20 -43 21 -68 1 -173 12 -180 19 -3 3 60 5 139 6 79 1 155 5 169 9 34
11 50 12 50 2z m480 -10 c0 -15 -6 -18 -27 -15 -38 6 -79 -11 -98 -41 -14 -22
-17 -62 -19 -266 -1 -159 2 -240 9 -240 5 0 5 -4 -2 -8 -7 -4 -17 -29 -23 -55
-11 -50 -26 -80 -68 -132 -24 -30 -88 -75 -106 -75 -6 0 10 13 35 28 58 38 76
60 99 118 16 43 18 83 19 306 2 272 -2 302 -47 341 -11 10 -33 22 -48 27 -21
6 4 9 86 10 63 1 129 6 145 10 45 11 45 11 45 -8z m1258 -57 c29 -45 22 -45
-12 0 -15 19 -23 35 -19 35 4 0 18 -16 31 -35z m341 -107 c0 -52 -3 -67 -9
-53 -7 15 -9 11 -7 -20 l2 -40 64 -3 c35 -2 77 1 92 7 25 8 29 7 29 -8 0 -14
-7 -16 -35 -13 -61 7 -167 -8 -161 -23 2 -7 6 -111 7 -230 2 -201 4 -218 23
-243 28 -37 36 -42 73 -42 22 0 44 10 67 30 19 17 37 27 40 22 7 -12 -74 -62
-104 -63 -48 -2 -75 3 -91 17 -8 8 -21 14 -27 14 -7 0 -12 7 -12 15 0 8 -6 12
-14 9 -33 -13 -40 34 -38 260 1 158 -1 222 -10 227 -6 4 -26 5 -45 2 -47 -8
-41 2 20 30 61 28 96 74 104 137 4 25 11 40 19 40 11 0 14 -17 13 -72z m-1722
0 c-3 -8 -6 -5 -6 6 -1 11 2 17 5 13 3 -3 4 -12 1 -19z m327 -100 c-12 -19
-14 -77 -3 -83 5 -4 42 12 82 33 39 22 90 45 113 51 54 14 127 4 156 -23 12
-11 25 -20 28 -19 9 3 11 -35 16 -247 2 -113 6 -215 9 -227 7 -31 32 -53 61
-53 14 0 24 -6 24 -14 0 -11 -8 -12 -37 -5 -21 5 -76 9 -123 9 -62 1 -79 4
-62 10 12 5 26 20 31 33 11 27 7 444 -4 470 -10 24 -57 47 -97 47 -37 0 -121
-45 -157 -84 -24 -26 -25 -31 -29 -213 -2 -123 1 -195 8 -213 12 -30 51 -53
75 -44 10 4 15 0 15 -10 0 -19 -1 -19 -37 -5 -15 5 -82 11 -148 11 -78 1 -107
4 -82 8 21 4 45 14 54 22 20 21 30 110 32 293 2 169 -1 178 -64 199 l-39 14
55 11 c29 7 70 20 89 31 38 20 47 19 34 -2z m2077 -13 c19 -10 46 -28 61 -42
14 -14 30 -25 34 -24 5 0 9 -5 10 -12 3 -33 5 -38 12 -34 4 3 8 -17 9 -43 l2
-49 -33 6 c-19 3 -43 0 -57 -8 -16 -10 -75 -16 -179 -19 l-155 -5 2 -30 c4
-66 34 -171 60 -208 38 -55 117 -91 183 -85 53 5 116 44 155 98 13 17 26 27
29 22 8 -14 -88 -100 -131 -119 -84 -35 -193 -13 -253 52 -14 15 -34 32 -45
38 -18 9 -19 9 -5 -8 13 -16 13 -18 0 -13 -27 9 -70 85 -75 133 -3 26 -7 50
-10 55 -3 4 2 40 11 79 41 179 231 289 375 216z m-684 -157 c-2 -18 -4 -4 -4
32 0 36 2 50 4 33 2 -18 2 -48 0 -65z m-610 -230 c-3 -8 -6 -5 -6 6 -1 11 2
17 5 13 3 -3 4 -12 1 -19z m-10 -50 c-3 -8 -6 -5 -6 6 -1 11 2 17 5 13 3 -3 4
-12 1 -19z m-537 -134 c0 -2 -7 -4 -15 -4 -8 0 -15 4 -15 10 0 5 7 7 15 4 8
-4 15 -8 15 -10z m-933 0 c-3 -3 -12 -4 -19 -1 -8 3 -5 6 6 6 11 1 17 -2 13
-5z"/>
<path d="M1495 1280 c-3 -5 -1 -10 4 -10 6 0 11 5 11 10 0 6 -2 10 -4 10 -3 0
-8 -4 -11 -10z"/>
<path d="M3739 1020 c-41 -22 -74 -79 -85 -147 l-7 -43 134 0 c148 0 172 8
182 57 8 41 -25 109 -65 133 -42 25 -111 26 -159 0z"/>
</g>
</svg>
